<svg width="418" height="406" viewBox="0 0 418 406" fill="none" xmlns="http://www.w3.org/2000/svg">
<rect width="418" height="406" fill="white"/>
<ellipse cx="209" cy="203" rx="209" ry="203" fill="white"/>
<path d="M177.825 164.893C174.369 166.67 167.347 173.207 166.911 183.014C166.365 195.272 170.731 201.667 180.554 212.326C182.737 203.266 190.377 187.81 184.92 176.618M175.642 153.701C172.186 153.168 163.091 153.808 156.542 160.63C148.356 169.157 143.99 178.75 139.624 179.283C135.259 179.816 168.548 178.217 177.825 163.295M151.721 177.527C144.263 180.014 128.928 190.475 125.435 211.793C124.927 215.267 121.581 217.354 120.241 217.626M120.241 217.626C120.142 217.646 120.054 217.656 119.978 217.656C119.904 217.656 119.998 217.648 120.241 217.626ZM120.241 217.626C121.222 217.533 124.631 217.186 129.256 216.042M166.911 186.212C158.639 205.881 140.411 213.282 129.256 216.042M145.627 209.661C144.854 214.95 144.501 223.258 145.46 232.046M167.056 188.765C167.601 192.074 171.277 218.722 168.002 227.782C164.59 237.224 159.816 254.963 158.725 264.023C151.92 257.981 148.215 248.293 146.392 238.441M129.256 216.042C129.195 216.057 116.158 229.381 113.975 243.238C111.792 257.094 109.609 259.226 108.518 259.226C108.152 259.226 111.681 258.566 116.704 256.883M145.46 232.046C144.201 237.966 140.708 242.694 136.343 246.435M145.46 232.046C145.69 234.161 145.997 236.305 146.392 238.441M136.343 246.435C133.798 253.541 129.692 270.525 133.621 281.61M136.343 246.435C131.351 250.714 125.217 253.703 119.978 255.709C118.837 256.146 117.739 256.536 116.704 256.883M133.621 281.61C137.551 292.696 139.988 295.112 140.716 294.934C143.263 288.183 148.356 273.509 148.356 268.819C148.356 262.957 149.34 251.232 146.392 238.441M133.621 281.61C132.53 284.986 130.238 292.589 129.801 296M116.704 256.883C115.794 260.506 112.229 269.352 105.244 275.748C98.2582 282.143 97.6033 291.914 98.1491 296M234.035 150.504C238.037 154.945 250.943 162.762 268.406 158.498M242.221 140.91C250.953 145.174 270.809 150.29 279.54 136.647M250.407 130.796C258.593 133.994 277.987 136.753 286.719 122.257M261.322 118.526C269.507 120.836 287.895 121.511 294.881 105.736M271.69 106.268C276.238 108.578 287.981 110.426 298.022 99.3401M281.513 95.6094C286.971 95.9647 299.64 94.2237 305.315 84.4174M294.611 81.2196C298.249 81.9302 307.047 80.6867 312.286 70.0276M229.669 155.833C234.472 175.872 252.408 174.842 260.776 171.822C262.959 171.822 314.257 66.2969 314.803 64.6981C315.349 63.0992 314.803 60.9674 312.074 62.5663C309.346 64.1651 247.133 132.916 229.669 155.833ZM229.669 155.833C225.122 157.077 212.741 160.14 206.749 155.536M198.563 146.773C200.564 143.042 208.495 134.622 219.846 135.048C217.672 138.233 218.205 140.493 214.974 142.617M214.974 142.617C214.961 142.626 214.948 142.634 214.935 142.642M214.974 142.617C219.672 139.546 225.483 137.076 230.761 136.647C232.951 136.469 239.929 136.967 243.858 138.246M214.935 142.642V142.642ZM214.935 142.642C208.332 146.967 203.939 152.473 206.33 155.15M199.654 185.146C188.558 183.547 168.548 169.264 177.28 124.922C178.589 118.953 184.738 127.409 187.648 132.383C191.355 138.197 198.516 147.886 206.33 155.15M206.33 155.15C206.469 155.279 206.609 155.408 206.749 155.536M206.33 155.15C206.452 155.286 206.591 155.415 206.749 155.536M206.749 155.536C211.463 159.853 216.396 163.252 220.938 164.36C227.486 172.355 231.307 177.684 246.587 179.283C242.767 175.552 240.584 173.421 240.584 171.289M271.145 153.701C275.329 153.524 284.242 152.742 286.425 151.037C289.154 148.905 278.785 169.69 261.322 171.289M203.477 295.519L199.111 251.817M225.304 251.765C225.326 251.772 225.347 251.78 225.37 251.787M225.37 251.787C242.677 257.661 279.01 271.064 284.242 275.748C290.791 281.61 295.157 287.473 309.891 284.808C324.626 282.143 338.815 270.418 328.446 254.43C320.151 241.639 280.968 191.541 261.322 171.822M225.37 251.787C212.752 259.394 200.194 253.062 194.743 248.034M225.37 251.787C227.911 250.255 230.455 248.157 232.944 245.369" stroke="black" stroke-width="4" stroke-linecap="round" stroke-linejoin="round"/>
</svg>
