<svg width="517" height="530" viewBox="0 0 517 530" fill="none" xmlns="http://www.w3.org/2000/svg">
<path d="M177.524 233.499C169.961 237.479 154.598 252.126 153.642 274.097C152.448 301.561 162.001 315.89 183.494 339.771C188.27 319.472 204.987 284.844 193.047 259.768M172.748 208.423C165.185 207.229 145.284 208.662 130.955 223.946C113.044 243.051 103.492 264.545 93.9389 265.739C84.3864 266.933 157.225 263.351 177.524 229.917M120.407 261.804C104.088 267.377 70.5352 290.814 62.8931 338.577C61.7815 346.359 54.4602 351.035 51.5279 351.644M51.5279 351.644C51.3105 351.689 51.1172 351.712 50.9524 351.712C50.7906 351.712 50.996 351.695 51.5279 351.644ZM51.5279 351.644C53.6734 351.437 61.1328 350.66 71.2516 348.096M153.642 281.262C135.543 325.331 95.66 341.912 71.2516 348.096M107.074 333.801C105.381 345.649 104.61 364.264 106.707 383.952M153.961 286.983C155.153 294.396 163.195 354.1 156.031 374.399C148.564 395.555 138.12 435.297 135.731 455.596C120.842 442.06 112.736 420.354 108.748 398.281M71.2516 348.096C71.1194 348.13 42.5939 377.981 37.8176 409.027C33.0413 440.073 28.2651 444.849 25.8769 444.849C25.0755 444.849 32.7978 443.37 43.788 439.599M106.707 383.952C103.952 397.215 96.31 407.809 86.7585 416.192M106.707 383.952C107.212 388.692 107.883 393.495 108.748 398.281M86.7585 416.192C81.1915 432.113 72.2068 470.164 80.8041 495M86.7585 416.192C75.8357 425.778 62.4157 432.475 50.9524 436.969C48.4561 437.948 46.0527 438.822 43.788 439.599M80.8041 495C89.4015 519.837 94.735 525.25 96.3271 524.852C101.899 509.727 113.044 476.85 113.044 466.343C113.044 453.208 115.198 426.938 108.748 398.281M80.8041 495C78.416 502.563 73.4009 519.598 72.4457 527.24M43.788 439.599C41.7979 447.718 33.9966 467.537 18.7125 481.865C3.4284 496.194 1.99551 518.086 3.18958 527.24M300.513 201.259C309.27 211.21 337.507 228.723 375.717 219.17M318.424 179.766C337.529 189.318 380.975 200.781 400.08 170.213M336.335 157.105C354.246 164.269 396.681 170.452 415.787 137.973M360.217 129.615C378.128 134.789 418.361 136.302 433.645 100.957M382.904 102.151C392.855 107.326 418.548 111.465 440.519 86.6283M404.397 78.2698C416.338 79.0658 444.058 75.1652 456.477 53.1943M433.055 46.0299C441.015 47.622 460.265 44.8358 471.728 20.9544M290.961 213.2C301.468 258.097 340.713 255.788 359.023 249.022C363.799 249.022 476.041 12.5959 477.235 9.01373C478.43 5.43152 477.235 0.655239 471.265 4.23745C465.295 7.81966 329.171 161.855 290.961 213.2ZM290.961 213.2C281.01 215.986 253.92 222.85 240.81 212.534M222.899 192.901C227.277 184.542 244.631 165.676 269.467 166.631C264.71 173.767 265.876 178.83 258.806 183.589M258.806 183.589C258.777 183.608 258.749 183.627 258.721 183.646M258.806 183.589C269.087 176.71 281.8 171.176 293.349 170.213C298.141 169.814 313.409 170.93 322.006 173.795M258.721 183.646V183.646ZM258.721 183.646C244.274 193.336 234.661 205.672 239.893 211.668M225.287 278.874C201.007 275.291 157.225 243.29 176.33 143.944C179.196 130.57 192.649 149.516 199.017 160.661C207.128 173.687 222.796 195.393 239.893 211.668M239.893 211.668C240.198 211.959 240.504 212.247 240.81 212.534M239.893 211.668C240.16 211.974 240.465 212.263 240.81 212.534M240.81 212.534C251.125 222.206 261.919 229.821 271.855 232.305C286.184 250.216 294.543 262.157 327.977 265.739C319.618 257.38 314.842 252.604 314.842 247.828M381.71 208.423C390.864 208.025 410.368 206.274 415.144 202.453C421.114 197.677 398.427 244.246 360.217 247.828M233.651 526.162L224.098 428.248M281.408 428.132C281.456 428.149 281.504 428.166 281.552 428.182M281.552 428.182C319.423 441.344 398.919 471.371 410.368 481.865C424.696 495 434.249 508.135 466.489 502.165C498.729 496.194 529.775 469.925 507.087 434.103C488.937 405.445 403.203 293.202 360.217 249.022M281.552 428.182C253.945 445.225 226.466 431.038 214.54 419.774M281.552 428.182C287.113 424.75 292.68 420.05 298.125 413.803" stroke="white" stroke-width="4" stroke-linecap="round" stroke-linejoin="round"/>
</svg>
